<?xml version="1.0" encoding="UTF-8"?>
<svg id="Layer_1" data-name="Layer 1" xmlns="http://www.w3.org/2000/svg" viewBox="0 0 971.67 962.8">
  <defs>
    <style>
      .cls-1 {
        fill: #fff;
        stroke-width: 0px;
      }
    </style>
  </defs>
  <path class="cls-1" d="m961.47,862.68c-25.42-8.67-29.25-30.08-29.38-30.8-.11-.8-.29-1.58-.52-2.35-3.93-12.74-10.57-23.16-18.37-31.73-13.9-21.6-36.38-37.07-62.66-41.65-8.2-8.5-20.98-14.83-39.63-14.83-29.74,0-43.8,15.5-55.1,27.97-9.81,10.82-16.29,17.96-32.46,17.96-8.32,0-15.07,6.75-15.07,15.07s6.74,15.07,15.07,15.07c6.37,0,11.9-.83,16.96-2.08-6.66,4.91-13.1,7.53-16.96,7.53-8.32,0-15.07,6.75-15.07,15.07s6.74,15.07,15.07,15.07c5.18,0,11.12-1.29,17.31-3.7,0,.13.02.25.02.38-6.8,5.1-13.41,7.82-17.33,7.82-8.32,0-15.07,6.75-15.07,15.07s6.74,15.07,15.07,15.07c5.12,0,10.99-1.27,17.1-3.61-11.47,10.25-25.07,16.77-36.19,16.77-8.32,0-15.07,6.75-15.07,15.07s6.75,15.07,15.07,15.07c14.95,0,30.45-5.73,44.32-15.12-6.39,8.29-14.27,14.52-23.24,17.84-7.8,2.89-11.78,11.56-8.89,19.36,2.25,6.08,8.01,9.84,14.13,9.84,1.74,0,3.51-.3,5.24-.95,17.91-6.64,32.93-19.95,43.45-37.73,15.48,11.29,34.48,18.02,55.09,18.02,28.99,0,54.89-13.17,72.09-33.84,1.25,9.16,2.08,18.73,2.08,28.14,0,8.32,6.74,15.07,15.07,15.07s15.07-6.75,15.07-15.07c0-19.21-2.9-38.67-6.25-54.79,5.43,3.68,11.8,6.98,19.32,9.54,1.61.55,3.25.81,4.87.81,6.27,0,12.12-3.95,14.26-10.21,2.69-7.88-1.51-16.44-9.39-19.12h0Zm-127.11,60.72c-17.78,0-34.1-6.25-46.97-16.62-5.19-4.18-9.77-9.06-13.69-14.46-3.43-4.73-6.36-9.83-8.63-15.29-.86-2.09-1.66-4.21-2.34-6.39-1.32-4.24-2.22-8.66-2.77-13.19-.09-.77-.19-1.53-.26-2.3.41-.03.8-.09,1.21-.12,6.89-.58,13.16-1.71,18.78-3.37,4.98-1.47,9.44-3.35,13.52-5.5,23.16-12.23,32.64-34.23,36.38-52.18,1.14,15.69,5.64,33.43,19.51,39.93,7.72,3.62,13.75,9.98,16.18,18.15,3.78,12.67,12.86,29.71,34.2,33.4-12.92,22.63-37.25,37.95-65.12,37.95h0Z"/>
  <path class="cls-1" d="m623.96,367.16c-2.63-4.48-8.36-5.97-12.83-3.36-4.47,2.62-5.97,8.36-3.36,12.83l4.73,8.09c1.75,2.98,4.88,4.64,8.1,4.64,1.61,0,3.23-.41,4.72-1.28,4.47-2.62,5.97-8.36,3.36-12.83l-4.73-8.09Z"/>
  <path class="cls-1" d="m671.3,448.09c-2.63-4.48-8.35-5.98-12.83-3.36-4.47,2.62-5.97,8.36-3.36,12.83l4.73,8.09c1.75,2.98,4.88,4.64,8.1,4.64,1.61,0,3.23-.41,4.72-1.28,4.47-2.62,5.97-8.36,3.36-12.83l-4.73-8.09Z"/>
  <path class="cls-1" d="m754.5,627.49c1.75,2.98,4.88,4.64,8.1,4.64,1.61,0,3.24-.41,4.72-1.28,4.47-2.62,5.97-8.36,3.36-12.83l-4.73-8.09c-2.63-4.48-8.39-5.98-12.83-3.36-4.47,2.62-5.97,8.36-3.36,12.83l4.74,8.09Z"/>
  <path class="cls-1" d="m696.33,509.47c4.47-2.62,5.97-8.36,3.36-12.83l-4.73-8.09c-2.63-4.48-8.36-5.98-12.83-3.36-4.46,2.62-5.96,8.36-3.36,12.83l4.73,8.09c1.75,2.98,4.88,4.64,8.1,4.64,1.61,0,3.23-.41,4.72-1.28h0Z"/>
  <path class="cls-1" d="m778.17,667.96c1.75,2.98,4.88,4.64,8.1,4.64,1.61,0,3.23-.41,4.72-1.28,4.47-2.62,5.97-8.36,3.36-12.83l-4.73-8.09c-2.63-4.48-8.35-5.98-12.83-3.36-4.46,2.62-5.96,8.36-3.36,12.83l4.73,8.09Z"/>
  <path class="cls-1" d="m801.83,708.42c1.75,2.98,4.88,4.64,8.1,4.64,1.61,0,3.23-.41,4.72-1.28,4.47-2.62,5.97-8.36,3.36-12.83l-4.73-8.09c-2.63-4.48-8.36-5.98-12.83-3.36-4.47,2.62-5.97,8.36-3.36,12.83l4.74,8.09Z"/>
  <path class="cls-1" d="m707.17,546.56c1.74,2.98,4.88,4.65,8.1,4.65,1.6,0,3.23-.41,4.71-1.28,4.48-2.61,5.98-8.35,3.37-12.82l-4.72-8.09c-2.6-4.47-8.35-5.98-12.82-3.37-4.48,2.61-5.98,8.35-3.37,12.82l4.72,8.09Z"/>
  <path class="cls-1" d="m730.83,587.04c1.75,2.98,4.88,4.64,8.1,4.64,1.61,0,3.23-.41,4.72-1.28,4.47-2.62,5.97-8.36,3.36-12.83l-4.73-8.09c-2.63-4.48-8.36-5.97-12.83-3.36-4.47,2.62-5.97,8.36-3.36,12.83l4.74,8.09Z"/>
  <path class="cls-1" d="m647.63,407.63c-2.63-4.48-8.36-5.98-12.83-3.36-4.47,2.62-5.97,8.36-3.36,12.83l4.73,8.09c1.75,2.98,4.88,4.64,8.1,4.64,1.61,0,3.23-.41,4.72-1.28,4.47-2.62,5.97-8.36,3.36-12.83l-4.73-8.09Z"/>
  <path class="cls-1" d="m478.12,651.53c0-5.18-4.19-9.38-9.38-9.38s-9.38,4.19-9.38,9.38v9.38c0,5.18,4.19,9.38,9.38,9.38s9.38-4.19,9.38-9.38v-9.38Z"/>
  <path class="cls-1" d="m478.12,604.65c0-5.18-4.19-9.38-9.38-9.38s-9.38,4.19-9.38,9.38v9.38c0,5.18,4.19,9.38,9.38,9.38s9.38-4.19,9.38-9.38v-9.38Z"/>
  <path class="cls-1" d="m468.75,689.03c-5.18,0-9.38,4.19-9.38,9.38v9.38c0,5.18,4.19,9.38,9.38,9.38s9.38-4.19,9.38-9.38v-9.38c0-5.18-4.19-9.38-9.38-9.38Z"/>
  <path class="cls-1" d="m465.17,45.52c5.18,0,9.38-4.19,9.38-9.38V9.38c0-5.18-4.19-9.38-9.38-9.38s-9.38,4.19-9.38,9.38v26.77c0,5.18,4.19,9.38,9.38,9.38Z"/>
  <path class="cls-1" d="m531.18,58.88c1.15.48,2.36.7,3.54.7,3.69,0,7.2-2.2,8.68-5.83l10.12-24.79c1.96-4.79-.34-10.26-5.14-12.22-4.75-1.96-10.26.34-12.22,5.14l-10.12,24.79c-1.96,4.79.34,10.26,5.14,12.22h0Z"/>
  <path class="cls-1" d="m586.03,91.26c2.72,0,5.41-1.17,7.26-3.43l16.97-20.71c3.29-4.01,2.69-9.91-1.31-13.19-4.01-3.3-9.93-2.68-13.19,1.31l-16.97,20.71c-3.29,4.01-2.69,9.91,1.31,13.19,1.73,1.43,3.84,2.12,5.93,2.12h0Z"/>
  <path class="cls-1" d="m387.42,53.74c1.48,3.63,4.99,5.83,8.68,5.83,1.18,0,2.38-.22,3.54-.7,4.8-1.96,7.09-7.43,5.14-12.22l-10.12-24.79c-1.96-4.8-7.43-7.11-12.22-5.14-4.8,1.96-7.09,7.43-5.14,12.22l10.12,24.79Z"/>
  <path class="cls-1" d="m337.54,87.83c1.85,2.26,4.54,3.43,7.26,3.43,2.09,0,4.19-.7,5.93-2.12,4.01-3.29,4.59-9.19,1.31-13.19l-16.97-20.71c-3.28-4-9.19-4.61-13.19-1.31-4.01,3.29-4.59,9.19-1.31,13.19l16.97,20.71Z"/>
  <path class="cls-1" d="m610.09,294.08c8.3-19.54,12.52-40.21,12.52-61.46,0-43.35-17.25-83.74-48.57-113.73-31.3-29.97-72.44-45.41-115.88-43.56-77.91,3.38-143.77,66.91-149.95,144.62-2.03,25.73,2.04,50.74,12.11,74.35.13.41.29.8.46,1.2l33.47,72.54c7.73,16.75,13.52,34.39,17.24,52.52l6.46,30.53c2.73,12.92,14.3,22.3,27.52,22.3h119.41c13.21,0,24.78-9.38,27.51-22.3l6.48-30.6c3.7-18.05,9.48-35.71,17.22-52.46l33.47-72.54c.21-.46.38-.93.51-1.42h0Zm-154.87-72.48h8.18c.68,0,1.28-.25,1.92-.39.64.14,1.24.39,1.92.39h8.18c1.78,16.62,15.87,29.6,32.94,29.6h28.92l-45.55,203.45h-52.84l-45.55-203.45h28.94c17.07,0,31.16-12.98,32.94-29.6h0Zm-18.57-18.75h-14.38c-7.93,0-14.38-6.45-14.38-14.43s6.45-14.38,14.38-14.38,14.38,6.45,14.38,14.38v14.43Zm155.72,84.98c-.15.32-.27.65-.37.99l-32.93,71.37c-8.33,18.06-14.57,37.1-18.55,56.5l-6.47,30.53c-.91,4.31-4.76,7.43-9.17,7.43h-13.95l54.45-243.2c1.14-5.05-2.04-10.07-7.09-11.2-5.08-1.12-10.07,2.06-11.2,7.09l-5.62,25.11h-33.12c-6.71,0-12.36-4.62-13.93-10.85h13.93c18.27,0,33.13-14.86,33.13-33.18s-14.86-33.12-33.13-33.12-33.12,14.86-33.12,33.12v14.43h-7.99c-.68,0-1.28.25-1.92.39-.64-.14-1.24-.39-1.92-.39h-7.99v-14.43c0-18.27-14.86-33.12-33.12-33.12s-33.13,14.86-33.13,33.17,14.86,33.13,33.13,33.13h13.93c-1.57,6.23-7.22,10.85-13.93,10.85h-33.13l-5.62-25.11c-1.12-5.04-6.07-8.22-11.2-7.09-5.05,1.12-8.23,6.14-7.09,11.2l54.44,243.2h-14.2c-4.4,0-8.27-3.12-9.17-7.43l-6.45-30.48c-3.99-19.47-10.25-38.5-18.57-56.55l-33.03-71.59c-.09-.26-.19-.51-.3-.77-9.14-21.06-12.86-43.39-11.04-66.39,5.44-68.45,63.45-124.4,132.05-127.38,38.32-1.67,74.52,11.96,102.1,38.37,27.59,26.42,42.79,62.01,42.79,100.2,0,19.11-3.87,37.67-11.49,55.21h0Zm-98.39-84.98v-14.43c0-7.93,6.45-14.38,14.38-14.38s14.38,6.45,14.38,14.42-6.45,14.38-14.38,14.38h-14.38Z"/>
  <path class="cls-1" d="m543.75,492.15c0-5.18-4.19-9.38-9.38-9.38h-140.62c-5.18,0-9.38,4.19-9.38,9.38s4.19,9.38,9.38,9.38h140.62c5.18,0,9.38-4.19,9.38-9.38Z"/>
  <path class="cls-1" d="m524.99,520.27c0-5.18-4.19-9.38-9.38-9.38h-103.12c-5.18,0-9.38,4.19-9.38,9.38s4.19,9.38,9.38,9.38h103.12c5.18,0,9.38-4.19,9.38-9.38Z"/>
  <path class="cls-1" d="m515.62,548.4c0-5.18-4.19-9.38-9.38-9.38h-84.38c-5.18,0-9.38,4.19-9.38,9.38s4.19,9.38,9.38,9.38h84.38c5.18,0,9.38-4.19,9.38-9.38Z"/>
  <path class="cls-1" d="m93.75,754.65c-51.78,0-93.75,41.97-93.75,93.75s41.97,93.75,93.75,93.75,93.75-41.97,93.75-93.75-41.97-93.75-93.75-93.75Zm0,168.75c-41.35,0-75-33.65-75-75,0-6.48.91-12.75,2.47-18.75h50.23c5.27,0,10.3-2.22,13.85-6.11l6.64-7.27c7.21-7.9,19.55-8.18,27.11-.62l8.51,8.51c3.51,3.51,8.28,5.49,13.25,5.49h25.47c1.55,6,2.47,12.27,2.47,18.75,0,41.35-33.64,75-75,75Z"/>
  <path class="cls-1" d="m580.14,831.56c-15.34-8.03-36.23-22.09-45.77-42.48-19.36-41.42-58.27-32.88-58.27-32.88l.02.15c-5.54-1.05-11.23-1.64-17.07-1.68l.02-.03c-.09,0-.17.01-.26.01-.07,0-.15-.01-.23-.01-1.18,0-2.32.13-3.48.18-77.41,1.88-95.11,56.66-102.6,88.19-5.35,22.5-16.66,48.34-26.18,67.77-6.67,13.62,4.84,29.31,19.8,26.74,24.04-4.13,42.17-11.62,52.72-16.87,16.22,13.43,37.03,21.5,59.74,21.5,35.51,0,66.4-19.75,82.31-48.86,11.72-6.17,30.7-17.54,44.2-32.53,8.18-9.09,5.88-23.53-4.95-29.2h0Zm-187.2,53.06c60.38-12.39,85.8-46.11,96.44-71.98,8.11,9.47,22.17,21.14,43.02,23,.71,4.16,1.17,8.4,1.17,12.75,0,41.35-33.65,75-75,75-28.22,0-52.83-15.68-65.63-38.78h0Z"/>
  <path class="cls-1" d="m146.49,663.79c1.47.86,3.09,1.26,4.69,1.26,3.23,0,6.38-1.68,8.12-4.68l4.7-8.11c2.6-4.48,1.07-10.22-3.41-12.81-4.47-2.61-10.21-1.07-12.81,3.41l-4.7,8.11c-2.6,4.48-1.07,10.22,3.41,12.81h0Z"/>
  <path class="cls-1" d="m254.61,477.24c-4.48-2.61-10.22-1.07-12.81,3.41l-4.7,8.11c-2.6,4.48-1.07,10.22,3.41,12.81,1.47.86,3.09,1.26,4.69,1.26,3.23,0,6.38-1.68,8.12-4.68l4.7-8.11c2.6-4.47,1.07-10.21-3.41-12.8h0Z"/>
  <path class="cls-1" d="m101.6,741.22c1.48.86,3.11,1.26,4.7,1.26,3.23,0,6.38-1.68,8.12-4.67l2.56-4.42c2.6-4.48,1.07-10.22-3.41-12.82-4.5-2.62-10.23-1.06-12.82,3.41l-2.56,4.42c-2.6,4.48-1.07,10.22,3.41,12.82h0Z"/>
  <path class="cls-1" d="m122.97,704.35c1.48.86,3.11,1.26,4.7,1.26,3.23,0,6.38-1.68,8.12-4.67l4.71-8.11c2.6-4.48,1.07-10.22-3.41-12.82-4.5-2.61-10.23-1.06-12.82,3.41l-4.71,8.11c-2.6,4.48-1.07,10.22,3.41,12.82h0Z"/>
  <path class="cls-1" d="m207.61,558.35c-4.5-2.61-10.23-1.07-12.82,3.41l-4.71,8.11c-2.6,4.48-1.07,10.22,3.41,12.82,1.48.86,3.11,1.26,4.7,1.26,3.23,0,6.38-1.68,8.12-4.67l4.71-8.11c2.6-4.48,1.07-10.22-3.41-12.82h0Z"/>
  <path class="cls-1" d="m278.13,436.69c-4.5-2.62-10.22-1.06-12.82,3.41l-4.71,8.11c-2.6,4.48-1.07,10.22,3.41,12.82,1.48.86,3.11,1.26,4.7,1.26,3.23,0,6.38-1.68,8.12-4.67l4.71-8.11c2.6-4.47,1.07-10.22-3.41-12.81h0Z"/>
  <path class="cls-1" d="m184.09,598.91c-4.47-2.61-10.22-1.07-12.81,3.41l-4.7,8.11c-2.6,4.48-1.07,10.22,3.41,12.81,1.47.86,3.09,1.26,4.69,1.26,3.23,0,6.38-1.68,8.12-4.68l4.7-8.11c2.6-4.47,1.07-10.21-3.41-12.8h0Z"/>
  <path class="cls-1" d="m231.11,517.8c-4.5-2.62-10.23-1.06-12.82,3.41l-4.7,8.1c-2.6,4.48-1.07,10.22,3.41,12.82,1.48.86,3.11,1.26,4.7,1.26,3.23,0,6.38-1.68,8.12-4.67l4.7-8.1c2.6-4.48,1.07-10.22-3.41-12.82h0Z"/>
  <path class="cls-1" d="m325.14,355.58c-4.5-2.62-10.23-1.06-12.82,3.41l-4.71,8.11c-2.6,4.48-1.07,10.22,3.41,12.82,1.48.86,3.11,1.26,4.7,1.26,3.23,0,6.38-1.68,8.12-4.67l4.71-8.11c2.6-4.48,1.07-10.21-3.41-12.82h0Z"/>
  <path class="cls-1" d="m301.62,396.14c-4.48-2.61-10.22-1.07-12.81,3.41l-4.7,8.11c-2.6,4.48-1.07,10.22,3.41,12.81,1.47.86,3.09,1.26,4.69,1.26,3.23,0,6.38-1.68,8.12-4.68l4.7-8.11c2.6-4.48,1.07-10.22-3.41-12.81h0Z"/>
</svg>